<svg fill='#8ae65c' xmlns="http://www.w3.org/2000/svg" height="48" viewBox="0 96 960 960" width="48"><path d="M12.109 926V815.326q0-39.801 19.332-70.818 19.332-31.018 54.864-46.834 74.956-32.739 136.18-47.739 61.223-15 126.062-15 65.298 0 126.028 15 60.729 15 135.729 47.761 34.852 15.215 55.002 46.336 20.151 31.12 20.151 71.281V926H12.109Zm738.261 0V814.283q0-62.718-31.739-107.24-31.74-44.521-85.5-75.434 71.413 9.239 134.304 25.261 62.891 16.021 104.097 37.265 35.719 19.85 56.539 50.996 20.82 31.147 20.82 69.882V926H750.37ZM348.842 568.848q-72.37 0-117.617-45.247t-45.247-116.938q0-71.93 45.258-117.677 45.257-45.747 117.057-45.747 71.561 0 117.547 45.642 45.986 45.642 45.986 117.162 0 72.311-45.814 117.558t-117.17 45.247Zm398.115-162.807q0 72.074-45.731 117.44-45.731 45.367-117.098 45.367-13.81 0-29.599-1.881-15.79-1.88-29.029-6.88 25.239-28.173 37.739-66.974 12.5-38.802 12.5-86.62 0-47.819-12.537-84.891T525.5 251.969q13.033-3.719 29.264-6.224 16.232-2.506 29.329-2.506 71.293 0 117.078 45.759 45.786 45.76 45.786 117.043Z"/></svg>